<svg viewBox="0 0 98 52" fill="none" xmlns="http://www.w3.org/2000/svg">
<path d="M56.9208 15.4146C56.7938 15.1605 56.5341 15 56.25 15C55.9659 15 55.7062 15.1605 55.5792 15.4146L54.6076 17.3576L52.6646 18.3292C52.4105 18.4562 52.25 18.7159 52.25 19C52.25 19.2841 52.4105 19.5438 52.6646 19.6708L54.6076 20.6424L55.5792 22.5854C55.7062 22.8395 55.9659 23 56.25 23C56.5341 23 56.7938 22.8395 56.9208 22.5854L57.8924 20.6424L59.8354 19.6708C60.0895 19.5438 60.25 19.2841 60.25 19C60.25 18.7159 60.0895 18.4562 59.8354 18.3292L57.8924 17.3576L56.9208 15.4146Z" fill="currentColor"/>
<path fill-rule="evenodd" clip-rule="evenodd" d="M41.75 18.75C41.75 18.6119 41.8619 18.5 42 18.5H48.5C48.9142 18.5 49.25 18.1642 49.25 17.75C49.25 17.3358 48.9142 17 48.5 17H42C41.0335 17 40.25 17.7835 40.25 18.75V33.25C40.25 34.2165 41.0335 35 42 35H56.5C57.4665 35 58.25 34.2165 58.25 33.25V26.75C58.25 26.3358 57.9142 26 57.5 26C57.0858 26 56.75 26.3358 56.75 26.75V33.25C56.75 33.3881 56.6381 33.5 56.5 33.5H54.6592C54.1888 30.9396 51.9461 29 49.25 29C46.5539 29 44.3112 30.9396 43.8408 33.5H42C41.8619 33.5 41.75 33.3881 41.75 33.25V18.75Z" fill="currentColor"/>
<path d="M49.25 21.5C47.5931 21.5 46.25 22.8431 46.25 24.5C46.25 26.1569 47.5931 27.5 49.25 27.5C50.9069 27.5 52.25 26.1569 52.25 24.5C52.25 22.8431 50.9069 21.5 49.25 21.5Z" fill="currentColor"/>
</svg>
