<svg width="40" height="40" viewBox="0 0 40 40" fill="none" xmlns="http://www.w3.org/2000/svg">
<rect width="40" height="40" rx="4.44444" fill="#232329"/>
<path fill-rule="evenodd" clip-rule="evenodd" d="M9.99998 20.2948C9.95907 20.2948 9.9259 20.2617 9.9259 20.2208V11.0376C9.9259 10.9967 9.95907 10.9635 9.99998 10.9635H11.8304C13.139 10.9635 14.3655 12.2444 15.1173 14.3961L15.7215 16.1256C16.4733 18.2773 17.6998 19.5582 19.0083 19.5582H29.8769C29.9178 19.5582 29.951 19.5913 29.951 19.6322V28.8154C29.951 28.8563 29.9178 28.8895 29.8769 28.8895H21.6586C20.35 28.8895 19.1235 27.6086 18.3718 25.4569L17.7675 23.7274C17.0158 21.5757 15.7893 20.2948 14.4807 20.2948H9.99998Z" fill="#F85197"/>
<path fill-rule="evenodd" clip-rule="evenodd" d="M8.96299 21.3985C8.92208 21.3985 8.88892 21.3653 8.88892 21.3244V10.1489C8.88892 10.108 8.92208 10.0749 8.96299 10.0749H11.8432C12.863 10.0749 13.7544 10.5718 14.4551 11.2956C15.1531 12.0165 15.7152 13.0105 16.1257 14.1727L16.7319 15.8888L15.7467 16.2293L15.1405 14.5131C14.3864 12.3781 13.1559 11.1071 11.8432 11.1071H10.0066C9.96568 11.1071 9.93252 11.1402 9.93252 11.1812V20.2922C9.93252 20.3331 9.96568 20.3663 10.0066 20.3663H14.5019C15.8147 20.3663 17.0451 21.6373 17.7993 23.7723L18.4055 25.4885C19.1597 27.6235 20.3901 28.8945 21.7029 28.8945H29.9478C29.9887 28.8945 30.0219 28.8613 30.0219 28.8204V19.7094C30.0219 19.6685 29.9887 19.6353 29.9478 19.6353H19.0441C17.7313 19.6353 16.5009 18.3643 15.7467 16.2293L16.7319 15.8888C17.0756 16.8617 17.5057 17.5707 17.9397 18.019C18.371 18.4645 18.7512 18.6031 19.0441 18.6031H30.9914C31.0323 18.6031 31.0655 18.6362 31.0655 18.6771V29.8526C31.0655 29.8935 31.0323 29.9267 30.9914 29.9267H21.7029C20.683 29.9267 19.7916 29.4298 19.0909 28.706C18.393 27.9851 17.8308 26.991 17.4203 25.8289L16.8141 24.1128C16.4704 23.1398 16.0403 22.4308 15.6063 21.9825C15.175 21.537 14.7948 21.3985 14.5019 21.3985H8.96299Z" fill="white"/>
<path fill-rule="evenodd" clip-rule="evenodd" d="M8.96299 21.3985C8.92208 21.3985 8.88892 21.3653 8.88892 21.3244V10.1489C8.88892 10.108 8.92208 10.0749 8.96299 10.0749H11.8432C12.863 10.0749 13.7544 10.5718 14.4551 11.2956C15.1531 12.0165 15.7152 13.0105 16.1257 14.1727L16.7319 15.8888L15.7467 16.2293L15.1405 14.5131C14.3864 12.3781 13.1559 11.1071 11.8432 11.1071H10.0066C9.96568 11.1071 9.93252 11.1402 9.93252 11.1812V20.2922C9.93252 20.3331 9.96568 20.3663 10.0066 20.3663H14.5019C15.8147 20.3663 17.0451 21.6373 17.7993 23.7723L18.4055 25.4885C19.1597 27.6235 20.3901 28.8945 21.7029 28.8945H29.9478C29.9887 28.8945 30.0219 28.8613 30.0219 28.8204V19.7094C30.0219 19.6685 29.9887 19.6353 29.9478 19.6353H19.0441C17.7313 19.6353 16.5009 18.3643 15.7467 16.2293L16.7319 15.8888C17.0756 16.8617 17.5057 17.5707 17.9397 18.019C18.371 18.4645 18.7512 18.6031 19.0441 18.6031H30.9914C31.0323 18.6031 31.0655 18.6362 31.0655 18.6771V29.8526C31.0655 29.8935 31.0323 29.9267 30.9914 29.9267H21.7029C20.683 29.9267 19.7916 29.4298 19.0909 28.706C18.393 27.9851 17.8308 26.991 17.4203 25.8289L16.8141 24.1128C16.4704 23.1398 16.0403 22.4308 15.6063 21.9825C15.175 21.537 14.7948 21.3985 14.5019 21.3985H8.96299Z" fill="white"/>
</svg>
