<svg width="34" height="34" viewBox="0 0 34 34" fill="none" xmlns="http://www.w3.org/2000/svg">
<mask id="path-1-inside-1_170_6576" fill="white">
<path d="M0 17C0 7.61116 7.61116 0 17 0C26.3888 0 34 7.61116 34 17C34 26.3888 26.3888 34 17 34C7.61116 34 0 26.3888 0 17Z"/>
</mask>
<path d="M0 17C0 7.61116 7.61116 0 17 0C26.3888 0 34 7.61116 34 17C34 26.3888 26.3888 34 17 34C7.61116 34 0 26.3888 0 17Z" fill="#232329"/>
<path d="M0 16C0 6.61116 7.61116 -1 17 -1C26.3888 -1 34 6.61116 34 16V17C34 8.16344 26.3888 1 17 1C7.61116 1 0 8.16344 0 17V16ZM34 34H0H34ZM0 34V0V34ZM34 0V34V0Z" fill="#E0E0FB" fill-opacity="0.1" mask="url(#path-1-inside-1_170_6576)"/>
<path d="M22.9737 13.9794C22.7575 12.0793 21.1033 11.4699 19.0258 11.3243L18.9796 8.68421L17.3726 8.71243L17.4176 11.283C16.9951 11.2904 16.5634 11.3063 16.1346 11.3223L16.0896 8.73477L14.4835 8.76276L14.529 11.4021C14.1811 11.4153 13.8396 11.4277 13.5064 11.4338L13.5061 11.4256L11.2896 11.4635L11.32 13.1799C11.32 13.1799 12.5063 13.1365 12.4869 13.1587C13.1379 13.1476 13.3563 13.5218 13.4236 13.8468L13.4763 16.8544C13.5212 16.8539 13.5798 16.8547 13.6463 16.8627C13.5928 16.8637 13.5355 16.8643 13.4766 16.8658L13.5497 21.0793C13.5247 21.2846 13.41 21.6133 12.9553 21.6221C12.9761 21.6399 11.7871 21.6422 11.7871 21.6422L11.5013 23.5669L13.5926 23.5303C13.9818 23.524 14.3648 23.5239 14.7408 23.5198L14.7881 26.1899L16.3934 26.1622L16.3472 23.5202C16.7881 23.5216 17.2147 23.5177 17.6312 23.51L17.6764 26.1398L19.2834 26.1116L19.2374 23.4462C21.9364 23.244 23.8154 22.5303 24.006 19.9891C24.1599 17.9429 23.183 17.0481 21.6429 16.7066C22.5663 16.2159 23.1343 15.3698 22.9737 13.9794ZM20.8251 19.7281C20.8608 21.7235 17.4401 21.5562 16.351 21.5763L16.2897 18.0384C17.3791 18.0197 20.7889 17.6468 20.8251 19.7281ZM19.9905 14.7498C20.0217 16.5652 17.1685 16.4031 16.2613 16.419L16.2054 13.2104C17.1126 13.1945 19.9573 12.8562 19.9905 14.7498Z" fill="#F7931A"/>
</svg>
