<svg width="25" height="24" viewBox="0 0 25 24" fill="none" xmlns="http://www.w3.org/2000/svg">
<path fill-rule="evenodd" clip-rule="evenodd" d="M13.6249 10.7879C12.7167 10.4573 12.2485 9.45307 12.579 8.54486L14.4601 3.37655C14.7907 2.46834 15.7949 2.00006 16.7031 2.33062L21.8714 4.21173C22.7796 4.5423 23.2479 5.54652 22.9174 6.45473L21.0362 11.623C20.7057 12.5313 19.7015 12.9995 18.7932 12.669L13.6249 10.7879ZM17.408 8.43958C17.927 8.62847 18.5008 8.36088 18.6897 7.84191C18.8786 7.32293 18.611 6.74908 18.092 6.56019C17.5731 6.3713 16.9992 6.63889 16.8103 7.15787C16.6214 7.67684 16.889 8.25069 17.408 8.43958Z" fill="currentColor"/>
<path fill-rule="evenodd" clip-rule="evenodd" d="M2.02745 11.1C1.15151 11.5085 0.772536 12.5497 1.181 13.4257L4.35063 20.223C4.75909 21.0989 5.80031 21.4779 6.67625 21.0694L13.4736 17.8998C14.3495 17.4913 14.7285 16.4501 14.32 15.5742L11.1504 8.77687C10.7419 7.90092 9.7007 7.52195 8.82476 7.93041L2.02745 11.1ZM6.66102 13.3518C6.89443 13.8523 6.67787 14.4473 6.17733 14.6807C5.67679 14.9141 5.08181 14.6975 4.84841 14.197C4.615 13.6965 4.83156 13.1015 5.3321 12.8681C5.83264 12.6347 6.42762 12.8512 6.66102 13.3518ZM10.1656 16.1319C10.6662 15.8984 10.8827 15.3035 10.6493 14.8029C10.4159 14.3024 9.82092 14.0858 9.32038 14.3192C8.81984 14.5526 8.60328 15.1476 8.83669 15.6482C9.07009 16.1487 9.66507 16.3653 10.1656 16.1319Z" fill="currentColor"/>
</svg>
