<svg width="14" height="14" viewBox="0 0 14 14" fill="none" xmlns="http://www.w3.org/2000/svg">
<path d="M7.00001 4.22909V3.61334M7.00001 9.77075V10.3865M8.45834 5.24992C8.19218 4.88183 7.56979 4.53696 7.00001 4.53696C6.33366 4.53696 5.46066 4.82204 5.46066 5.63161C5.46066 7.3848 8.53936 6.64696 8.53936 8.32124C8.53936 9.12471 7.67683 9.46288 7.00001 9.46288C6.43023 9.46288 5.72682 9.11801 5.46066 8.74992M12.5417 6.99992C12.5417 10.0605 10.0606 12.5416 7.00001 12.5416C3.93943 12.5416 1.45834 10.0605 1.45834 6.99992C1.45834 3.93934 3.93943 1.45825 7.00001 1.45825C10.0606 1.45825 12.5417 3.93934 12.5417 6.99992Z" stroke="#9F9FAC" stroke-linecap="square"/>
</svg>
