<svg width="12" height="12" viewBox="0 0 12 12" fill="none" xmlns="http://www.w3.org/2000/svg">
<path fill-rule="evenodd" clip-rule="evenodd" d="M0.166687 6.00008C0.166687 2.77842 2.77836 0.166748 6.00002 0.166748C9.22168 0.166748 11.8334 2.77842 11.8334 6.00008C11.8334 9.22174 9.22168 11.8334 6.00002 11.8334C2.77836 11.8334 0.166687 9.22174 0.166687 6.00008ZM6.43752 2.26513V3.20626C6.93724 3.30325 7.37776 3.56465 7.65287 3.94512L7.90922 4.29964L7.20017 4.81235L6.94382 4.45782C6.77872 4.2295 6.43583 4.03943 6.00002 4.03943H5.83348C5.24315 4.03943 4.93868 4.40681 4.93868 4.66778V4.71354C4.93868 4.91363 5.08429 5.16259 5.43176 5.30158L6.89325 5.88617C7.48726 6.12378 7.93636 6.64464 7.93636 7.28663C7.93636 8.11487 7.22909 8.68461 6.43752 8.80979V9.73504H5.56252V8.7939C5.0628 8.69691 4.62228 8.43552 4.34717 8.05505L4.09082 7.70052L4.79987 7.18781L5.05622 7.54234C5.22132 7.77066 5.56421 7.96073 6.00002 7.96073H6.10936C6.73128 7.96073 7.06136 7.57287 7.06136 7.28663C7.06136 7.08653 6.91575 6.83758 6.56828 6.69859L5.10679 6.11399C4.51278 5.87639 4.06368 5.35553 4.06368 4.71354V4.66778C4.06368 3.84562 4.77896 3.28856 5.56252 3.18275V2.26513H6.43752Z" fill="white"/>
</svg>
