<svg width="34" height="34" viewBox="0 0 34 34" fill="none" xmlns="http://www.w3.org/2000/svg">
<mask id="path-1-inside-1_170_6564" fill="white">
<path d="M0 17C0 7.61116 7.61116 0 17 0C26.3888 0 34 7.61116 34 17C34 26.3888 26.3888 34 17 34C7.61116 34 0 26.3888 0 17Z"/>
</mask>
<path d="M0 17C0 7.61116 7.61116 0 17 0C26.3888 0 34 7.61116 34 17C34 26.3888 26.3888 34 17 34C7.61116 34 0 26.3888 0 17Z" fill="#09090B"/>
<path d="M0 0H34H0ZM34 18C34 27.3888 26.3888 35 17 35C7.61116 35 0 27.3888 0 18V17C0 25.8366 7.61116 33 17 33C26.3888 33 34 25.8366 34 17V18ZM0 34V0V34ZM34 0V34V0Z" fill="#E0E0FB" fill-opacity="0.1" mask="url(#path-1-inside-1_170_6564)"/>
<path d="M16.9853 14.6017V7.79169L11.3335 17.1705L16.9853 14.6017Z" fill="white"/>
<path d="M16.9853 20.5122V14.6018L11.3335 17.1706L16.9853 20.5122Z" fill="#C0CBF6"/>
<path d="M16.9854 14.6017L22.6382 17.1705L16.9854 7.79169V14.6017Z" fill="#C0CBF6"/>
<path d="M16.9854 14.6022V20.5126L22.6382 17.171L16.9854 14.6022Z" fill="#8197EE"/>
<path d="M16.9853 21.5828L11.3335 18.2433L16.9853 26.2083V21.5828Z" fill="white"/>
<path d="M22.6413 18.2433L16.9854 21.5828V26.2083L22.6413 18.2433Z" fill="#C0CBF6"/>
</svg>
