<svg width="52" height="104" viewBox="0 0 52 104" fill="none" xmlns="http://www.w3.org/2000/svg">
<path d="M50.9413 96.9652C49.6172 96.647 48.3103 96.2735 47.0175 95.853C50.4236 90.41 47.7343 87.5109 44.0722 85.1857C43.6498 84.9173 43.4208 85.3065 43.6299 85.5423C44.0068 85.9641 44.1632 86.6246 43.866 87.5734C43.1876 89.7325 43.1364 91.3915 43.701 92.8048C44.1504 93.9312 44.9867 94.8999 46.0305 95.5192C42.8562 94.4156 39.7929 93.0108 36.8874 91.3304C41.3374 86.7184 39.3122 83.3278 36.2161 80.2967C35.8591 79.9473 35.5534 80.2796 35.7098 80.5538C35.99 81.0452 36.007 81.7228 35.5178 82.5906C34.4043 84.5622 34.0089 86.1743 34.2663 87.6729C34.4668 88.8447 35.0627 89.9441 35.926 90.7623C33.0802 89.0365 30.3923 87.045 27.9078 84.815C33.2196 81.2285 31.9439 77.4914 29.5475 73.8835C29.2716 73.4673 28.9033 73.7301 28.9986 74.0298C29.1707 74.5682 29.0455 75.2358 28.3856 75.9815C26.8866 77.6789 26.1642 79.1731 26.1045 80.693C26.0575 81.8819 26.4116 83.0821 27.0858 84.0622C25.2298 82.325 23.4948 80.4515 21.8991 78.4544C21.4084 77.8394 20.932 77.2144 20.4698 76.5809C26.4216 74.1761 25.9523 70.253 24.358 66.2247C24.1746 65.7602 23.7593 65.9406 23.7906 66.2531C23.846 66.8156 23.5858 67.442 22.7851 68.0343C20.9647 69.3837 19.9479 70.6947 19.5724 72.1691C19.2752 73.3381 19.3776 74.6023 19.8497 75.7116C17.9241 72.9574 16.2744 70.0371 14.9091 66.9775C21.2406 65.8639 21.5976 61.9265 20.878 57.6539C20.7955 57.161 20.3518 57.2519 20.3162 57.5644C20.2536 58.1269 19.8682 58.6851 18.9623 59.0985C16.9016 60.0402 15.633 61.1112 14.9589 62.4762C14.4185 63.5699 14.2592 64.8469 14.5024 66.0414C14.1084 65.1111 13.7401 64.1693 13.3988 63.2148C12.6052 60.9933 11.9666 58.7277 11.4802 56.4281C17.9014 56.6511 19.0718 52.8771 19.2567 48.5491C19.278 48.0505 18.8258 48.0463 18.7262 48.3446C18.5484 48.8815 18.0549 49.3474 17.0822 49.5647C14.8707 50.0576 13.4059 50.8431 12.463 52.0376C11.7092 52.9907 11.2882 54.1995 11.274 55.4139C10.6468 52.1328 10.3283 48.7877 10.3283 45.4043C16.556 46.9497 18.4844 43.5024 19.5653 39.3079C19.6904 38.825 19.2481 38.7269 19.0889 38.9982C18.803 39.4869 18.2242 39.8391 17.2272 39.8491C14.9617 39.8718 13.366 40.3363 12.1942 41.3078C11.2726 42.0734 10.6127 43.1473 10.3382 44.312C10.4051 40.9371 10.7848 37.6176 11.4717 34.3691C17.2514 37.1872 19.8583 34.2129 21.791 30.3309C22.0143 29.8835 21.6018 29.696 21.3899 29.9289C21.0088 30.3465 20.3688 30.5724 19.3918 30.3749C17.1704 29.9275 15.5135 30.0497 14.1653 30.757C13.0773 31.328 12.1942 32.274 11.6893 33.3919C12.4473 30.1207 13.5225 26.9248 14.9063 23.8226C19.972 27.777 23.1406 25.4092 25.8371 22.0144C26.1485 21.6238 25.7845 21.3539 25.5285 21.5371C25.0691 21.8667 24.395 21.9547 23.4805 21.5584C21.4013 20.6593 19.7544 20.4349 18.2882 20.8468C17.1177 21.1764 16.0667 21.905 15.34 22.878C16.7778 19.8184 18.4873 16.9265 20.4598 14.2192C24.5913 19.1352 28.1822 17.4776 31.5272 14.7178C31.9126 14.3996 31.6125 14.0615 31.3253 14.1879C30.8062 14.4152 30.1292 14.3612 29.3186 13.7831C27.4726 12.4721 25.9082 11.9096 24.3879 12.009C23.1762 12.0886 21.9972 12.5815 21.0856 13.3811C22.4381 11.6 23.9072 9.90256 25.4886 8.29324C26.8482 8.41113 28.2462 8.00489 29.3314 7.17821C30.5416 6.25495 31.3508 4.80613 31.8799 2.60449C32.1117 1.63719 32.5867 1.15141 33.1271 0.982384C33.4272 0.887216 33.4301 0.436946 32.9309 0.44973C28.5662 0.566203 24.7463 1.68691 24.9212 8.21369C24.9639 8.22222 25.008 8.2279 25.0506 8.235C23.4222 9.90966 21.9133 11.6781 20.5281 13.5346C21.1098 12.3059 21.2193 10.8613 20.8239 9.56024C20.383 8.10432 19.3065 6.84016 17.4278 5.57457C16.6015 5.01777 16.3128 4.40415 16.3427 3.84025C16.3597 3.52634 15.9373 3.36441 15.7738 3.83741C14.3601 7.94239 14.07 11.8897 20.164 14.0218C18.0962 16.8597 16.3171 19.9023 14.8337 23.1252C15.1423 21.807 14.9475 20.3767 14.2933 19.192C13.5595 17.8597 12.2425 16.8455 10.142 15.9975C9.21756 15.6254 8.80797 15.0842 8.7198 14.526C8.67145 14.2149 8.22346 14.1453 8.16373 14.6411C7.6361 18.9492 8.17226 22.8709 14.5749 23.6905C13.1328 26.9233 12.0264 30.257 11.2598 33.6717C11.2797 32.328 10.7919 30.9829 9.91158 29.9673C8.91606 28.8167 7.41709 28.098 5.1857 27.7046C4.2044 27.5313 3.69099 27.0881 3.48905 26.5597C3.37669 26.2657 2.92444 26.2898 2.96853 26.7884C3.34825 31.1107 4.69078 34.8336 11.1204 34.3081C10.3937 37.744 10.0097 41.261 9.97273 44.8361C9.7267 43.4896 8.96015 42.2439 7.86792 41.4172C6.6548 40.4982 5.03921 40.1062 2.77511 40.1857C1.77959 40.2212 1.1837 39.8931 0.876512 39.4187C0.705851 39.1545 0.269244 39.2724 0.414306 39.7496C1.68715 43.9029 3.77775 47.2679 9.96847 45.4086C9.96847 48.9596 10.3183 52.4694 11.0052 55.9082C10.479 54.6597 9.47924 53.6171 8.2519 53.0418C6.87382 52.3941 5.21272 52.3473 3.01404 52.8941C2.04696 53.1356 1.39703 52.9382 0.997397 52.5376C0.775538 52.3146 0.371641 52.5206 0.614832 52.958C2.72249 56.7534 5.46587 59.6112 11.1304 56.5148C11.6196 58.8243 12.2624 61.0998 13.0589 63.3313C13.4471 64.4193 13.8709 65.4917 14.3274 66.5471C13.5523 65.4435 12.3634 64.6367 11.0493 64.3313C9.56599 63.9847 7.93192 64.283 5.89536 65.2744C4.99939 65.7105 4.32244 65.6537 3.84886 65.3454C3.58433 65.1736 3.23448 65.4591 3.56158 65.8355C6.41303 69.1095 9.69114 71.3353 14.5863 67.1323C16.0255 70.3567 17.7833 73.4276 19.8412 76.3153C18.8499 75.375 17.5017 74.821 16.135 74.794C14.6119 74.7628 13.0759 75.3948 11.2897 76.7868C10.5046 77.4005 9.83052 77.4843 9.30289 77.2812C9.0085 77.1689 8.72549 77.5198 9.12512 77.8195C12.5981 80.4316 16.2687 81.9287 20.1839 76.7911C20.6476 77.426 21.124 78.0524 21.6161 78.6703C23.3483 80.8393 25.2455 82.8605 27.2806 84.7227C27.2692 84.7156 27.2578 84.7071 27.245 84.7C26.0774 83.9784 24.6353 83.7142 23.2871 83.9713C21.791 84.2568 20.42 85.1943 18.9623 86.9272C18.3223 87.6899 17.6809 87.9129 17.122 87.8234C16.8105 87.7737 16.6058 88.1771 17.0594 88.3873C21.0017 90.2225 24.907 90.9228 27.666 85.0764C30.3141 87.4541 33.194 89.5606 36.2488 91.3674C36.2374 91.3631 36.2275 91.3588 36.2161 91.3546C34.9234 90.8915 33.4585 90.9313 32.1928 91.4639C30.7891 92.0548 29.6428 93.2551 28.5776 95.2536C28.1097 96.1328 27.5295 96.4837 26.9634 96.5121C26.6491 96.5277 26.5325 96.9652 27.0203 97.0774C31.2584 98.0532 35.2234 97.9282 36.7068 91.6372C39.7587 93.4014 42.9828 94.8644 46.3263 95.9951C44.981 95.826 43.5773 96.1698 42.4651 96.9439C41.215 97.8132 40.3433 99.2251 39.7189 101.401C39.4444 102.358 38.9495 102.822 38.402 102.968C38.0976 103.049 38.0749 103.5 38.5755 103.509C42.9217 103.583 46.7701 102.64 46.9165 96.1925C48.2121 96.6144 49.5248 96.9879 50.8531 97.3075C50.8673 97.3104 50.8816 97.3132 50.8944 97.3132C50.9754 97.3132 51.048 97.2578 51.0679 97.1768C51.0906 97.0817 51.0323 96.9851 50.937 96.9624L50.9413 96.9652Z" fill="#24242E"/>
</svg>
