<svg width="52" height="104" viewBox="0 0 52 104" fill="none" xmlns="http://www.w3.org/2000/svg">
<path d="M0.709587 96.9652C2.03363 96.647 3.34061 96.2735 4.63337 95.853C1.22726 90.41 3.91659 87.5109 7.57869 85.1857C8.00107 84.9173 8.23004 85.3065 8.02098 85.5423C7.6441 85.9641 7.48767 86.6246 7.7849 87.5734C8.46328 89.7325 8.51448 91.3915 7.94987 92.8048C7.50047 93.9312 6.66423 94.8999 5.62035 95.5192C8.79464 94.4156 11.858 93.0108 14.7635 91.3304C10.3135 86.7184 12.3387 83.3278 15.4348 80.2967C15.7917 79.9473 16.0975 80.2796 15.9411 80.5538C15.6609 81.0452 15.6438 81.7228 16.1331 82.5906C17.2466 84.5622 17.642 86.1743 17.3846 87.6729C17.184 88.8447 16.5882 89.9441 15.7249 90.7623C18.5707 89.0365 21.2586 87.045 23.7431 84.815C18.4313 81.2285 19.707 77.4914 22.1033 73.8835C22.3792 73.4673 22.7476 73.7301 22.6523 74.0298C22.4802 74.5682 22.6054 75.2358 23.2653 75.9815C24.7642 77.6789 25.4867 79.1731 25.5464 80.693C25.5934 81.8819 25.2392 83.0821 24.5651 84.0622C26.4211 82.325 28.1561 80.4515 29.7518 78.4544C30.2424 77.8394 30.7189 77.2144 31.1811 76.5809C25.2293 74.1761 25.6986 70.253 27.2929 66.2247C27.4763 65.7602 27.8916 65.9406 27.8603 66.2531C27.8048 66.8156 28.0651 67.442 28.8658 68.0343C30.6862 69.3837 31.703 70.6947 32.0785 72.1691C32.3757 73.3381 32.2733 74.6023 31.8011 75.7116C33.7268 72.9574 35.3765 70.0371 36.7418 66.9775C30.4103 65.8639 30.0533 61.9265 30.7729 57.6539C30.8554 57.161 31.2991 57.2519 31.3347 57.5644C31.3973 58.1269 31.7827 58.6851 32.6886 59.0985C34.7493 60.0402 36.0179 61.1112 36.692 62.4762C37.2324 63.5699 37.3917 64.8469 37.1485 66.0414C37.5425 65.1111 37.9108 64.1693 38.2521 63.2148C39.0457 60.9933 39.6843 58.7277 40.1706 56.4281C33.7495 56.6511 32.5791 52.8771 32.3942 48.5491C32.3729 48.0505 32.8251 48.0463 32.9247 48.3446C33.1024 48.8815 33.5959 49.3474 34.5687 49.5647C36.7802 50.0576 38.245 50.8431 39.1879 52.0376C39.9417 52.9907 40.3626 54.1995 40.3769 55.4139C41.004 52.1328 41.3226 48.7877 41.3226 45.4043C35.0949 46.9497 33.1664 43.5024 32.0856 39.3079C31.9604 38.825 32.4027 38.7269 32.562 38.9982C32.8479 39.4869 33.4267 39.8391 34.4236 39.8491C36.6892 39.8718 38.2848 40.3363 39.4567 41.3078C40.3783 42.0734 41.0382 43.1473 41.3126 44.312C41.2458 40.9371 40.8661 37.6176 40.1792 34.3691C34.3995 37.1872 31.7926 34.2129 29.8599 30.3309C29.6366 29.8835 30.049 29.696 30.2609 29.9289C30.6421 30.3465 31.2821 30.5724 32.2591 30.3749C34.4805 29.9275 36.1374 30.0497 37.4856 30.757C38.5735 31.328 39.4567 32.274 39.9616 33.3919C39.2036 30.1207 38.1284 26.9248 36.7446 23.8226C31.6788 27.777 28.5102 25.4092 25.8138 22.0144C25.5023 21.6238 25.8664 21.3539 26.1224 21.5371C26.5818 21.8667 27.2559 21.9547 28.1703 21.5584C30.2496 20.6593 31.8964 20.4349 33.3627 20.8468C34.5331 21.1764 35.5841 21.905 36.3109 22.878C34.873 19.8184 33.1636 16.9265 31.191 14.2192C27.0596 19.1352 23.4686 17.4776 20.1237 14.7178C19.7383 14.3996 20.0383 14.0615 20.3256 14.1879C20.8447 14.4152 21.5217 14.3612 22.3323 13.7831C24.1783 12.4721 25.7427 11.9096 27.263 12.009C28.4747 12.0886 29.6537 12.5815 30.5653 13.3811C29.2128 11.6 27.7437 9.90256 26.1622 8.29324C24.8026 8.41113 23.4046 8.00489 22.3195 7.17821C21.1092 6.25495 20.3 4.80613 19.771 2.60449C19.5392 1.63719 19.0642 1.15141 18.5237 0.982384C18.2237 0.887216 18.2208 0.436946 18.72 0.44973C23.0846 0.566203 26.9046 1.68691 26.7297 8.21369C26.687 8.22222 26.6429 8.2279 26.6003 8.235C28.2286 9.90966 29.7376 11.6781 31.1228 13.5346C30.5411 12.3059 30.4316 10.8613 30.827 9.56024C31.2678 8.10432 32.3444 6.84016 34.2231 5.57457C35.0494 5.01777 35.3381 4.40415 35.3082 3.84025C35.2912 3.52634 35.7135 3.36441 35.8771 3.83741C37.2907 7.94239 37.5809 11.8897 31.4868 14.0218C33.5547 16.8597 35.3338 19.9023 36.8172 23.1252C36.5085 21.807 36.7034 20.3767 37.3576 19.192C38.0914 17.8597 39.4084 16.8455 41.5089 15.9975C42.4333 15.6254 42.8429 15.0842 42.9311 14.526C42.9794 14.2149 43.4274 14.1453 43.4871 14.6411C44.0148 18.9492 43.4786 22.8709 37.076 23.6905C38.5181 26.9233 39.6245 30.257 40.3911 33.6717C40.3712 32.328 40.859 30.9829 41.7393 29.9673C42.7348 28.8167 44.2338 28.098 46.4652 27.7046C47.4465 27.5313 47.9599 27.0881 48.1618 26.5597C48.2742 26.2657 48.7264 26.2898 48.6823 26.7884C48.3026 31.1107 46.9601 34.8336 40.5304 34.3081C41.2572 37.744 41.6412 41.261 41.6781 44.8361C41.9242 43.4896 42.6907 42.2439 43.783 41.4172C44.9961 40.4982 46.6117 40.1062 48.8758 40.1857C49.8713 40.2212 50.4672 39.8931 50.7744 39.4187C50.945 39.1545 51.3816 39.2724 51.2366 39.7496C49.9637 43.9029 47.8731 47.2679 41.6824 45.4086C41.6824 48.9596 41.3326 52.4694 40.6456 55.9082C41.1719 54.6597 42.1716 53.6171 43.399 53.0418C44.7771 52.3941 46.4382 52.3473 48.6368 52.8941C49.6039 53.1356 50.2539 52.9382 50.6535 52.5376C50.8753 52.3146 51.2792 52.5206 51.036 52.958C48.9284 56.7534 46.185 59.6112 40.5205 56.5148C40.0313 58.8243 39.3884 61.0998 38.592 63.3313C38.2038 64.4193 37.78 65.4917 37.3234 66.5471C38.0985 65.4435 39.2875 64.6367 40.6016 64.3313C42.0849 63.9847 43.719 64.283 45.7555 65.2744C46.6515 65.7105 47.3284 65.6537 47.802 65.3454C48.0665 65.1736 48.4164 65.4591 48.0893 65.8355C45.2378 69.1095 41.9597 71.3353 37.0646 67.1323C35.6254 70.3567 33.8676 73.4276 31.8097 76.3153C32.8009 75.375 34.1492 74.821 35.5159 74.794C37.039 74.7628 38.575 75.3948 40.3612 76.7868C41.1463 77.4005 41.8204 77.4843 42.348 77.2812C42.6424 77.1689 42.9254 77.5198 42.5258 77.8195C39.0528 80.4316 35.3822 81.9287 31.4669 76.7911C31.0033 77.426 30.5269 78.0524 30.0348 78.6703C28.3026 80.8393 26.4054 82.8605 24.3703 84.7227C24.3817 84.7156 24.393 84.7071 24.4058 84.7C25.5735 83.9784 27.0155 83.7142 28.3638 83.9713C29.8599 84.2568 31.2309 85.1943 32.6886 86.9272C33.3286 87.6899 33.97 87.9129 34.5289 87.8234C34.8403 87.7737 35.0451 88.1771 34.5915 88.3873C30.6492 90.2225 26.7439 90.9228 23.9849 85.0764C21.3368 87.4541 18.4569 89.5606 15.4021 91.3674C15.4134 91.3631 15.4234 91.3588 15.4348 91.3546C16.7275 90.8915 18.1924 90.9313 19.4581 91.4639C20.8618 92.0548 22.0081 93.2551 23.0733 95.2536C23.5412 96.1328 24.1214 96.4837 24.6874 96.5121C25.0017 96.5277 25.1184 96.9652 24.6305 97.0774C20.3925 98.0532 16.4275 97.9282 14.9441 91.6372C11.8921 93.4014 8.66807 94.8644 5.32454 95.9951C6.66992 95.826 8.0736 96.1698 9.18574 96.9439C10.4358 97.8132 11.3076 99.2251 11.932 101.401C12.2064 102.358 12.7014 102.822 13.2489 102.968C13.5532 103.049 13.576 103.5 13.0754 103.509C8.72923 103.583 4.88083 102.64 4.73434 96.1925C3.43874 96.6144 2.12608 96.9879 0.797764 97.3075C0.783543 97.3104 0.769321 97.3132 0.756519 97.3132C0.675457 97.3132 0.602924 97.2578 0.583015 97.1768C0.560261 97.0817 0.618568 96.9851 0.713852 96.9624L0.709587 96.9652Z" fill="#24242E"/>
</svg>
