<svg width="32" height="32" viewBox="0 0 32 32" fill="none" xmlns="http://www.w3.org/2000/svg">
<g filter="url(#filter0_di_3312_14143)">
<path d="M10.5 12.6667H17M21.5 19.3333H16.3333M10.5 19.3333H11.6667M17.1667 12.6667C17.1667 11.4696 18.1363 10.5 19.3333 10.5C20.5304 10.5 21.5 11.4696 21.5 12.6667C21.5 13.8638 20.5304 14.8333 19.3333 14.8333C18.1363 14.8333 17.1667 13.8638 17.1667 12.6667ZM16.1667 19.3333C16.1667 20.5304 15.1971 21.5 14 21.5C12.8029 21.5 11.8333 20.5304 11.8333 19.3333C11.8333 18.1363 12.8029 17.1667 14 17.1667C15.1971 17.1667 16.1667 18.1363 16.1667 19.3333Z" stroke="#9F9FAC" stroke-width="1.5" stroke-linecap="square"/>
</g>
<defs>
<filter id="filter0_di_3312_14143" x="-1" y="-1" width="34" height="34" filterUnits="userSpaceOnUse" color-interpolation-filters="sRGB">
<feFlood flood-opacity="0" result="BackgroundImageFix"/>
<feColorMatrix in="SourceAlpha" type="matrix" values="0 0 0 0 0 0 0 0 0 0 0 0 0 0 0 0 0 0 127 0" result="hardAlpha"/>
<feMorphology radius="1" operator="dilate" in="SourceAlpha" result="effect1_dropShadow_3312_14143"/>
<feOffset/>
<feComposite in2="hardAlpha" operator="out"/>
<feColorMatrix type="matrix" values="0 0 0 0 0 0 0 0 0 0 0 0 0 0 0 0 0 0 0.35 0"/>
<feBlend mode="normal" in2="BackgroundImageFix" result="effect1_dropShadow_3312_14143"/>
<feBlend mode="normal" in="SourceGraphic" in2="effect1_dropShadow_3312_14143" result="shape"/>
<feColorMatrix in="SourceAlpha" type="matrix" values="0 0 0 0 0 0 0 0 0 0 0 0 0 0 0 0 0 0 127 0" result="hardAlpha"/>
<feOffset dy="1"/>
<feComposite in2="hardAlpha" operator="arithmetic" k2="-1" k3="1"/>
<feColorMatrix type="matrix" values="0 0 0 0 1 0 0 0 0 1 0 0 0 0 1 0 0 0 0.04 0"/>
<feBlend mode="normal" in2="shape" result="effect2_innerShadow_3312_14143"/>
</filter>
</defs>
</svg>
