<svg width="34" height="34" viewBox="0 0 34 34" fill="none" xmlns="http://www.w3.org/2000/svg">
<mask id="path-1-inside-1_170_6274" fill="white">
<path d="M0 17C0 7.61116 7.61116 0 17 0C26.3888 0 34 7.61116 34 17C34 26.3888 26.3888 34 17 34C7.61116 34 0 26.3888 0 17Z"/>
</mask>
<path d="M0 17C0 7.61116 7.61116 0 17 0C26.3888 0 34 7.61116 34 17C34 26.3888 26.3888 34 17 34C7.61116 34 0 26.3888 0 17Z" fill="#09090B"/>
<path d="M0 0H34H0ZM34 18C34 27.3888 26.3888 35 17 35C7.61116 35 0 27.3888 0 18V17C0 25.8366 7.61116 33 17 33C26.3888 33 34 25.8366 34 17V18ZM0 34V0V34ZM34 0V34V0Z" fill="#E0E0FB" fill-opacity="0.1" mask="url(#path-1-inside-1_170_6274)"/>
<path fill-rule="evenodd" clip-rule="evenodd" d="M12.9887 20.3878C13.0281 20.3444 13.0761 20.3098 13.1297 20.286C13.1833 20.2623 13.2413 20.2501 13.2998 20.25L22.9002 20.2579C22.9411 20.258 22.9811 20.2699 23.0153 20.2923C23.0495 20.3146 23.0765 20.3465 23.093 20.3839C23.1095 20.4213 23.1147 20.4627 23.1081 20.5031C23.1015 20.5434 23.0833 20.5809 23.0558 20.6112L21.0113 22.8622C20.9719 22.9056 20.9238 22.9403 20.8702 22.964C20.8166 22.9877 20.7586 23 20.6999 23L11.0998 22.9921C11.0589 22.992 11.019 22.9801 10.9847 22.9577C10.9505 22.9354 10.9235 22.9035 10.9071 22.8661C10.8906 22.8287 10.8853 22.7873 10.8919 22.7469C10.8985 22.7066 10.9167 22.6691 10.9443 22.6388L12.9887 20.3878ZM23.0558 18.5138C23.0833 18.5441 23.1015 18.5816 23.1081 18.6219C23.1147 18.6623 23.1095 18.7037 23.093 18.7411C23.0765 18.7785 23.0495 18.8104 23.0153 18.8327C22.9811 18.8551 22.9411 18.867 22.9002 18.8671L13.3001 18.875C13.2415 18.875 13.1835 18.8627 13.1298 18.839C13.0762 18.8153 13.0281 18.7806 12.9887 18.7372L10.9443 16.4849C10.9167 16.4546 10.8985 16.4171 10.8919 16.3767C10.8853 16.3364 10.8906 16.295 10.9071 16.2576C10.9235 16.2202 10.9505 16.1883 10.9847 16.166C11.019 16.1436 11.0589 16.1317 11.0998 16.1315L20.7002 16.1237C20.7588 16.1237 20.8167 16.136 20.8703 16.1597C20.9239 16.1835 20.9719 16.2181 21.0113 16.2615L23.0558 18.5138ZM12.9887 12.1378C13.0281 12.0944 13.0761 12.0598 13.1297 12.036C13.1833 12.0123 13.2413 12 13.2998 12L22.9002 12.0079C22.9411 12.0079 22.9811 12.0199 23.0153 12.0423C23.0495 12.0646 23.0765 12.0965 23.093 12.1339C23.1095 12.1713 23.1147 12.2127 23.1081 12.253C23.1015 12.2934 23.0833 12.3309 23.0558 12.3612L21.0113 14.6122C20.9719 14.6556 20.9238 14.6903 20.8702 14.714C20.8166 14.7377 20.7586 14.75 20.6999 14.75L11.0998 14.7421C11.0589 14.742 11.019 14.7301 10.9847 14.7077C10.9505 14.6854 10.9235 14.6535 10.9071 14.6161C10.8906 14.5787 10.8853 14.5373 10.8919 14.4969C10.8985 14.4566 10.9167 14.4191 10.9443 14.3888L12.9887 12.1378Z" fill="url(#paint0_linear_170_6274)"/>
<defs>
<linearGradient id="paint0_linear_170_6274" x1="11.2601" y1="23.2399" x2="22.7399" y2="11.7601" gradientUnits="userSpaceOnUse">
<stop stop-color="#9945FF"/>
<stop offset="0.2" stop-color="#7962E7"/>
<stop offset="1" stop-color="#00D18C"/>
</linearGradient>
</defs>
</svg>
