<svg width="32" height="32" viewBox="0 0 32 32" fill="none" xmlns="http://www.w3.org/2000/svg">
<rect x="1" y="1" width="30" height="30" rx="15" fill="#2775CA"/>
<rect x="1" y="1" width="30" height="30" rx="15" stroke="#09090B" stroke-width="2"/>
<path d="M19.8501 18.2166C19.8501 16.175 18.6251 15.475 16.1751 15.1834C14.4251 14.95 14.0751 14.4834 14.0751 13.6666C14.0751 12.8499 14.6584 12.325 15.8251 12.325C16.8751 12.325 17.4584 12.675 17.7501 13.55C17.8084 13.725 17.9834 13.8416 18.1584 13.8416H19.0917C19.3251 13.8416 19.5001 13.6666 19.5001 13.4334V13.375C19.2667 12.0916 18.2167 11.1 16.8751 10.9834V9.5834C16.8751 9.35002 16.7001 9.17502 16.4084 9.11664H15.5334C15.3001 9.11664 15.1251 9.29164 15.0667 9.5834V10.925C13.3167 11.1584 12.2084 12.325 12.2084 13.7834C12.2084 15.7084 13.3751 16.4666 15.8251 16.7584C17.4584 17.05 17.9834 17.4 17.9834 18.3334C17.9834 19.2668 17.1667 19.9084 16.0584 19.9084C14.5417 19.9084 14.0167 19.2666 13.8417 18.3916C13.7834 18.1584 13.6084 18.0416 13.4334 18.0416H12.4417C12.2084 18.0416 12.0334 18.2166 12.0334 18.45V18.5084C12.2667 19.9666 13.2001 21.0166 15.1251 21.3084V22.7084C15.1251 22.9416 15.3001 23.1166 15.5917 23.175H16.4667C16.7001 23.175 16.8751 23 16.9334 22.7084V21.3084C18.6834 21.0166 19.8501 19.7916 19.8501 18.2166Z" fill="white"/>
<path d="M13.0249 24.3416C8.47492 22.7084 6.14154 17.6334 7.8333 13.1416C8.7083 10.6916 10.6333 8.82499 13.0249 7.94999C13.2583 7.83337 13.3749 7.65837 13.3749 7.36661V6.54999C13.3749 6.31661 13.2583 6.14161 13.0249 6.08337C12.9665 6.08337 12.8499 6.08337 12.7915 6.14161C7.24992 7.89161 4.21654 13.7834 5.96654 19.325C7.01654 22.5916 9.52492 25.1 12.7915 26.15C13.0249 26.2666 13.2583 26.15 13.3165 25.9166C13.3749 25.8584 13.3749 25.8 13.3749 25.6834V24.8666C13.3749 24.6916 13.1999 24.4584 13.0249 24.3416ZM19.2083 6.14161C18.9749 6.02499 18.7415 6.14161 18.6833 6.37499C18.6249 6.43337 18.6249 6.49161 18.6249 6.60837V7.42499C18.6249 7.65837 18.7999 7.89161 18.9749 8.00837C23.5249 9.64161 25.8583 14.7166 24.1665 19.2084C23.2915 21.6584 21.3665 23.525 18.9749 24.4C18.7415 24.5166 18.6249 24.6916 18.6249 24.9834V25.8C18.6249 26.0334 18.7415 26.2084 18.9749 26.2666C19.0333 26.2666 19.1499 26.2666 19.2083 26.2084C24.7499 24.4584 27.7833 18.5666 26.0333 13.025C24.9833 9.69999 22.4165 7.19161 19.2083 6.14161Z" fill="white"/>
</svg>
