<svg width="17" height="16" viewBox="0 0 17 16" fill="none" xmlns="http://www.w3.org/2000/svg">
<path fill-rule="evenodd" clip-rule="evenodd" d="M4.83333 2C3.54467 2 2.5 3.04467 2.5 4.33333V11.5C2.5 12.8807 3.61929 14 5 14H14.5V5.33333H11.8333V2H4.83333ZM10.8333 5.33333V3H4.83333C4.09695 3 3.5 3.59695 3.5 4.33333C3.5 4.88562 3.94772 5.33333 4.5 5.33333H10.8333ZM10.8333 10.3333C11.2015 10.3333 11.5 10.0349 11.5 9.66667C11.5 9.29848 11.2015 9 10.8333 9C10.4651 9 10.1667 9.29848 10.1667 9.66667C10.1667 10.0349 10.4651 10.3333 10.8333 10.3333Z" fill="white"/>
</svg>
